<svg width="28" height="29" viewBox="0 0 28 29" fill="none" xmlns="http://www.w3.org/2000/svg">
<path d="M10.4997 22.375H3.49967C2.37967 22.375 1.45801 21.4533 1.45801 20.3333V8.66667C1.45801 7.54667 2.37967 6.625 3.49967 6.625H9.33301C11.748 6.625 13.708 8.585 13.708 11C13.708 12.2017 13.218 13.2867 12.4363 14.08C13.883 14.7917 14.8747 16.285 14.8747 18C14.8747 20.415 12.9147 22.375 10.4997 22.375ZM3.20801 15.375V20.3333C3.20801 20.4967 3.33634 20.625 3.49967 20.625H10.4997C11.9463 20.625 13.1247 19.4467 13.1247 18C13.1247 16.5533 11.9463 15.375 10.4997 15.375H3.20801ZM3.20801 13.625H9.33301C10.7797 13.625 11.958 12.4467 11.958 11C11.958 9.55333 10.7797 8.375 9.33301 8.375H3.49967C3.33634 8.375 3.20801 8.50333 3.20801 8.66667V13.625ZM22.948 22.375H20.9997C17.943 22.375 15.458 19.89 15.458 16.8333C15.458 13.7767 17.943 11.2917 20.9997 11.2917C24.0563 11.2917 26.5413 13.7767 26.5413 16.8333C26.5413 17.3117 26.1447 17.7083 25.6663 17.7083H17.313C17.7097 19.3767 19.2147 20.625 20.9997 20.625H22.948C23.4263 20.625 23.823 21.0217 23.823 21.5C23.823 21.9783 23.4263 22.375 22.948 22.375ZM17.313 15.9583H24.698C24.4997 15.1291 24.0283 14.3907 23.3596 13.8617C22.691 13.3327 21.8639 13.0439 21.0113 13.0417C20.1574 13.0438 19.3288 13.3323 18.6583 13.8611C17.9878 14.3899 17.5141 15.1284 17.313 15.9583ZM22.7497 10.125H19.2497C18.7713 10.125 18.3747 9.72833 18.3747 9.25C18.3747 8.77167 18.7713 8.375 19.2497 8.375H22.7497C23.228 8.375 23.6247 8.77167 23.6247 9.25C23.6247 9.72833 23.228 10.125 22.7497 10.125Z" fill="#C8B8DB"/>
</svg>
