<svg width="28" height="28" viewBox="0 0 28 28" fill="none" xmlns="http://www.w3.org/2000/svg">
<path d="M10.5 21.875H3.49998C2.37998 21.875 1.45831 20.9533 1.45831 19.8333V8.16667C1.45831 7.04667 2.37998 6.125 3.49998 6.125H9.33331C11.7483 6.125 13.7083 8.085 13.7083 10.5C13.7083 11.7017 13.2183 12.7867 12.4366 13.58C13.8833 14.2917 14.875 15.785 14.875 17.5C14.875 19.915 12.915 21.875 10.5 21.875ZM3.20831 14.875V19.8333C3.20831 19.9967 3.33665 20.125 3.49998 20.125H10.5C11.9466 20.125 13.125 18.9467 13.125 17.5C13.125 16.0533 11.9466 14.875 10.5 14.875H3.20831ZM3.20831 13.125H9.33331C10.78 13.125 11.9583 11.9467 11.9583 10.5C11.9583 9.05333 10.78 7.875 9.33331 7.875H3.49998C3.33665 7.875 3.20831 8.00333 3.20831 8.16667V13.125ZM22.9483 21.875H21C17.9433 21.875 15.4583 19.39 15.4583 16.3333C15.4583 13.2767 17.9433 10.7917 21 10.7917C24.0566 10.7917 26.5416 13.2767 26.5416 16.3333C26.5416 16.8117 26.145 17.2083 25.6666 17.2083H17.3133C17.71 18.8767 19.215 20.125 21 20.125H22.9483C23.4266 20.125 23.8233 20.5217 23.8233 21C23.8233 21.4783 23.4266 21.875 22.9483 21.875ZM17.3133 15.4583H24.6983C24.5 14.6291 24.0286 13.8907 23.3599 13.3617C22.6913 12.8327 21.8642 12.5439 21.0116 12.5417C20.1577 12.5438 19.3292 12.8323 18.6586 13.3611C17.9881 13.8899 17.5144 14.6284 17.3133 15.4583ZM22.75 9.625H19.25C18.7716 9.625 18.375 9.22833 18.375 8.75C18.375 8.27167 18.7716 7.875 19.25 7.875H22.75C23.2283 7.875 23.625 8.27167 23.625 8.75C23.625 9.22833 23.2283 9.625 22.75 9.625Z" fill="#F9F4F5"/>
</svg>
