<svg width="28" height="29" viewBox="0 0 28 29" fill="none" xmlns="http://www.w3.org/2000/svg">
<path d="M8.01525 14.8278C7.52525 14.8278 7.02358 14.8044 6.53358 14.7578L2.83525 14.4194C2.72033 14.4088 2.60864 14.3755 2.50656 14.3217C2.40449 14.2678 2.31403 14.1943 2.24035 14.1055C2.16668 14.0166 2.11123 13.9142 2.07718 13.8039C2.04313 13.6936 2.03115 13.5777 2.04192 13.4628C2.08858 12.9844 2.49692 12.6228 2.99858 12.6694L6.69692 13.0078C12.4136 13.5328 17.9669 10.6394 20.8252 5.6461C21.0702 5.2261 21.5952 5.0861 22.0152 5.31944C22.4352 5.56444 22.5752 6.08944 22.3419 6.50944C19.4019 11.6778 13.8836 14.8278 8.01525 14.8278ZM6.41692 23.9721C6.2644 23.9709 6.11482 23.93 5.98294 23.8534C5.85106 23.7768 5.74143 23.6671 5.66487 23.5352C5.58831 23.4033 5.54747 23.2537 5.54636 23.1011C5.54526 22.9486 5.58394 22.7984 5.65858 22.6654C8.85525 17.0771 15.0619 13.8338 21.4669 14.4288L25.1652 14.7671C25.2802 14.7778 25.3918 14.8111 25.4939 14.865C25.5959 14.9188 25.6864 14.9923 25.76 15.0811C25.8337 15.17 25.8892 15.2724 25.9232 15.3827C25.9573 15.493 25.9693 15.6089 25.9586 15.7238C25.9479 15.8387 25.9146 15.9503 25.8607 16.0524C25.8068 16.1545 25.7334 16.2449 25.6446 16.3186C25.5557 16.3922 25.4532 16.4477 25.343 16.4817C25.2327 16.5158 25.1168 16.5278 25.0019 16.5171L21.3036 16.1788C15.5869 15.6538 10.0336 18.5471 7.17525 23.5404C7.01192 23.8204 6.72025 23.9721 6.41692 23.9721Z" fill="#C8B8DB"/>
<path d="M13.9997 27.0418C7.08134 27.0418 1.45801 21.4185 1.45801 14.5002C1.45801 7.58183 7.08134 1.9585 13.9997 1.9585C20.918 1.9585 26.5413 7.58183 26.5413 14.5002C26.5413 21.4185 20.918 27.0418 13.9997 27.0418ZM13.9997 3.7085C8.04968 3.7085 3.20801 8.55016 3.20801 14.5002C3.20801 20.4502 8.04968 25.2918 13.9997 25.2918C19.9497 25.2918 24.7913 20.4502 24.7913 14.5002C24.7913 8.55016 19.9497 3.7085 13.9997 3.7085Z" fill="#C8B8DB"/>
<path d="M19.2151 25.8144C18.8185 25.8144 18.4685 25.5461 18.3635 25.1494L16.9518 19.3277C16.0535 15.6411 14.3268 12.1294 11.9351 9.16607L8.22513 4.55774C8.14824 4.46947 8.08991 4.36662 8.05364 4.25532C8.01736 4.14402 8.00389 4.02656 8.014 3.90993C8.02412 3.79331 8.05764 3.67992 8.11254 3.57653C8.16744 3.47314 8.24261 3.38187 8.33356 3.30817C8.42451 3.23447 8.52937 3.17985 8.6419 3.14757C8.75442 3.11528 8.87229 3.106 8.98848 3.12027C9.10467 3.13454 9.21679 3.17207 9.31816 3.23062C9.41952 3.28918 9.50806 3.36755 9.57847 3.46107L13.2885 8.06941C15.8427 11.2483 17.6704 14.9476 18.6435 18.9077L20.0551 24.7294C20.1718 25.1961 19.8801 25.6744 19.4135 25.7911C19.3551 25.8027 19.2851 25.8144 19.2151 25.8144Z" fill="#C8B8DB"/>
</svg>
