<svg width="28" height="28" viewBox="0 0 28 28" fill="none" xmlns="http://www.w3.org/2000/svg">
<path d="M8.015 14.3278C7.525 14.3278 7.02334 14.3045 6.53334 14.2578L2.835 13.9195C2.72008 13.9088 2.60839 13.8756 2.50632 13.8217C2.40424 13.7678 2.31378 13.6944 2.24011 13.6055C2.16643 13.5167 2.11099 13.4142 2.07694 13.3039C2.04289 13.1937 2.03091 13.0777 2.04167 12.9628C2.08834 12.4845 2.49667 12.1228 2.99834 12.1695L6.69667 12.5078C12.4133 13.0328 17.9667 10.1395 20.825 5.14616C21.07 4.72616 21.595 4.58616 22.015 4.8195C22.435 5.0645 22.575 5.5895 22.3417 6.0095C19.4017 11.1778 13.8833 14.3278 8.015 14.3278ZM6.41667 23.4722C6.26415 23.471 6.11457 23.4301 5.98269 23.3535C5.85081 23.2768 5.74119 23.1672 5.66463 23.0352C5.58807 22.9033 5.54722 22.7537 5.54612 22.6012C5.54502 22.4487 5.58369 22.2985 5.65834 22.1655C8.855 16.5772 15.0617 13.3338 21.4667 13.9288L25.165 14.2672C25.2799 14.2779 25.3916 14.3111 25.4936 14.365C25.5957 14.4189 25.6861 14.4924 25.7598 14.5812C25.8335 14.67 25.8889 14.7725 25.923 14.8828C25.957 14.993 25.9691 15.1089 25.9583 15.2238C25.9476 15.3387 25.9144 15.4504 25.8605 15.5525C25.8066 15.6545 25.7331 15.745 25.6443 15.8186C25.5555 15.8923 25.453 15.9477 25.3427 15.9818C25.2325 16.0159 25.1166 16.0279 25.0017 16.0172L21.3033 15.6788C15.5867 15.1538 10.0333 18.0472 7.175 23.0405C7.01167 23.3205 6.72 23.4722 6.41667 23.4722Z" fill="#F9F4F5"/>
<path d="M14 26.5417C7.08165 26.5417 1.45831 20.9183 1.45831 14C1.45831 7.08166 7.08165 1.45833 14 1.45833C20.9183 1.45833 26.5416 7.08166 26.5416 14C26.5416 20.9183 20.9183 26.5417 14 26.5417ZM14 3.20833C8.04998 3.20833 3.20831 8.05 3.20831 14C3.20831 19.95 8.04998 24.7917 14 24.7917C19.95 24.7917 24.7916 19.95 24.7916 14C24.7916 8.05 19.95 3.20833 14 3.20833Z" fill="#F9F4F5"/>
<path d="M19.215 25.3143C18.8183 25.3143 18.4683 25.046 18.3633 24.6493L16.9517 18.8277C16.0533 15.141 14.3267 11.6293 11.935 8.666L8.22501 4.05766C8.14812 3.9694 8.08979 3.86655 8.05352 3.75525C8.01724 3.64395 8.00376 3.52648 8.01388 3.40986C8.024 3.29323 8.05751 3.17984 8.11242 3.07645C8.16732 2.97306 8.24249 2.8818 8.33344 2.8081C8.42439 2.7344 8.52925 2.67977 8.64177 2.64749C8.7543 2.61521 8.87217 2.60592 8.98836 2.62019C9.10455 2.63446 9.21667 2.672 9.31804 2.73055C9.4194 2.7891 9.50793 2.86748 9.57835 2.961L13.2883 7.56933C15.8425 10.7483 17.6703 14.4475 18.6433 18.4077L20.055 24.2293C20.1717 24.696 19.88 25.1743 19.4133 25.291C19.355 25.3027 19.285 25.3143 19.215 25.3143Z" fill="#F9F4F5"/>
</svg>
