<svg width="28" height="29" viewBox="0 0 28 29" fill="none" xmlns="http://www.w3.org/2000/svg">
<path d="M17.4997 27.0418H10.4997C4.16467 27.0418 1.45801 24.3352 1.45801 18.0002V11.0002C1.45801 4.66516 4.16467 1.9585 10.4997 1.9585H17.4997C23.8347 1.9585 26.5413 4.66516 26.5413 11.0002V18.0002C26.5413 24.3352 23.8347 27.0418 17.4997 27.0418ZM10.4997 3.7085C5.12134 3.7085 3.20801 5.62183 3.20801 11.0002V18.0002C3.20801 23.3785 5.12134 25.2918 10.4997 25.2918H17.4997C22.878 25.2918 24.7913 23.3785 24.7913 18.0002V11.0002C24.7913 5.62183 22.878 3.7085 17.4997 3.7085H10.4997Z" fill="#C8B8DB"/>
<path d="M14.0003 19.4582C12.6862 19.4551 11.4269 18.9318 10.4977 18.0026C9.56846 17.0734 9.04507 15.814 9.04199 14.4999C9.04507 13.1858 9.56846 11.9264 10.4977 10.9972C11.4269 10.068 12.6862 9.54463 14.0003 9.54155C15.3144 9.54463 16.5738 10.068 17.503 10.9972C18.4322 11.9264 18.9556 13.1858 18.9587 14.4999C18.9556 15.814 18.4322 17.0734 17.503 18.0026C16.5738 18.9318 15.3144 19.4551 14.0003 19.4582ZM14.0003 11.2916C12.227 11.2916 10.792 12.7266 10.792 14.4999C10.792 16.2732 12.227 17.7082 14.0003 17.7082C15.7737 17.7082 17.2087 16.2732 17.2087 14.4999C17.2087 12.7266 15.7737 11.2916 14.0003 11.2916ZM19.8337 9.24989C19.682 9.24989 19.5303 9.21489 19.3903 9.15655C19.2503 9.09822 19.122 9.01655 19.0053 8.91155C18.9003 8.79489 18.807 8.66655 18.7487 8.52655C18.6925 8.38561 18.6647 8.23494 18.667 8.08322C18.667 7.93155 18.6903 7.77989 18.7487 7.63989C18.8187 7.48822 18.9003 7.37155 19.0053 7.25489C19.0637 7.20822 19.122 7.14989 19.1803 7.11489C19.2503 7.06822 19.3203 7.03322 19.3903 7.00989C19.603 6.92147 19.8369 6.89755 20.063 6.94112C20.2891 6.98468 20.4974 7.0938 20.662 7.25489C20.767 7.37155 20.8487 7.48822 20.907 7.63989C20.9653 7.77989 21.0003 7.93155 21.0003 8.08322C21.0003 8.23489 20.9653 8.38655 20.907 8.52655C20.8487 8.66655 20.767 8.79489 20.662 8.91155C20.5453 9.01655 20.417 9.09822 20.277 9.15655C20.137 9.21489 19.9853 9.24989 19.8337 9.24989Z" fill="#C8B8DB"/>
</svg>
