<svg width="28" height="28" viewBox="0 0 28 28" fill="none" xmlns="http://www.w3.org/2000/svg">
<path d="M17.5 26.5417H10.5C4.16498 26.5417 1.45831 23.835 1.45831 17.5V10.5C1.45831 4.165 4.16498 1.45833 10.5 1.45833H17.5C23.835 1.45833 26.5416 4.165 26.5416 10.5V17.5C26.5416 23.835 23.835 26.5417 17.5 26.5417ZM10.5 3.20833C5.12165 3.20833 3.20831 5.12166 3.20831 10.5V17.5C3.20831 22.8783 5.12165 24.7917 10.5 24.7917H17.5C22.8783 24.7917 24.7916 22.8783 24.7916 17.5V10.5C24.7916 5.12166 22.8783 3.20833 17.5 3.20833H10.5Z" fill="#F9F4F5"/>
<path d="M14 18.9583C12.6859 18.9552 11.4266 18.4319 10.4974 17.5027C9.56815 16.5735 9.04477 15.3141 9.04169 14C9.04477 12.6859 9.56815 11.4265 10.4974 10.4973C11.4266 9.56812 12.6859 9.04474 14 9.04166C15.3141 9.04474 16.5735 9.56812 17.5027 10.4973C18.4319 11.4265 18.9553 12.6859 18.9584 14C18.9553 15.3141 18.4319 16.5735 17.5027 17.5027C16.5735 18.4319 15.3141 18.9552 14 18.9583ZM14 10.7917C12.2267 10.7917 10.7917 12.2267 10.7917 14C10.7917 15.7733 12.2267 17.2083 14 17.2083C15.7734 17.2083 17.2084 15.7733 17.2084 14C17.2084 12.2267 15.7734 10.7917 14 10.7917ZM19.8334 8.74999C19.6817 8.74999 19.53 8.71499 19.39 8.65666C19.25 8.59833 19.1217 8.51666 19.005 8.41166C18.9 8.29499 18.8067 8.16666 18.7484 8.02666C18.6922 7.88572 18.6644 7.73504 18.6667 7.58333C18.6667 7.43166 18.69 7.27999 18.7484 7.13999C18.8184 6.98833 18.9 6.87166 19.005 6.75499C19.0634 6.70833 19.1217 6.64999 19.18 6.61499C19.25 6.56833 19.32 6.53333 19.39 6.50999C19.6026 6.42158 19.8366 6.39766 20.0627 6.44122C20.2888 6.48479 20.4971 6.59391 20.6617 6.75499C20.7667 6.87166 20.8484 6.98833 20.9067 7.13999C20.965 7.27999 21 7.43166 21 7.58333C21 7.73499 20.965 7.88666 20.9067 8.02666C20.8484 8.16666 20.7667 8.29499 20.6617 8.41166C20.545 8.51666 20.4167 8.59833 20.2767 8.65666C20.1367 8.71499 19.985 8.74999 19.8334 8.74999Z" fill="#F9F4F5"/>
</svg>
