<svg width="28" height="28" viewBox="0 0 28 28" fill="none" xmlns="http://www.w3.org/2000/svg">
<path d="M14 0C6.286 0 0 6.286 0 14C0 21.714 6.286 28 14 28C21.714 28 28 21.714 28 14C28 6.286 21.714 0 14 0ZM16.506 18.2C16.912 18.606 16.912 19.278 16.506 19.684C16.296 19.894 16.03 19.992 15.764 19.992C15.498 19.992 15.232 19.894 15.022 19.684L10.08 14.742C9.88473 14.5444 9.77522 14.2778 9.77522 14C9.77522 13.7222 9.88473 13.4556 10.08 13.258L15.022 8.316C15.428 7.91 16.1 7.91 16.506 8.316C16.912 8.722 16.912 9.394 16.506 9.8L12.306 14L16.506 18.2Z" fill="#C8B8DB"/>
</svg>
