<svg width="29" height="28" viewBox="0 0 29 28" fill="none" xmlns="http://www.w3.org/2000/svg">
<path d="M14.5 0C6.786 0 0.5 6.286 0.5 14C0.5 21.714 6.786 28 14.5 28C22.214 28 28.5 21.714 28.5 14C28.5 6.286 22.214 0 14.5 0ZM17.006 18.2C17.412 18.606 17.412 19.278 17.006 19.684C16.796 19.894 16.53 19.992 16.264 19.992C15.998 19.992 15.732 19.894 15.522 19.684L10.58 14.742C10.3847 14.5444 10.2752 14.2778 10.2752 14C10.2752 13.7222 10.3847 13.4556 10.58 13.258L15.522 8.316C15.928 7.91 16.6 7.91 17.006 8.316C17.412 8.722 17.412 9.394 17.006 9.8L12.806 14L17.006 18.2Z" fill="#F9F4F5"/>
</svg>
