<svg width="28" height="28" viewBox="0 0 28 28" fill="none" xmlns="http://www.w3.org/2000/svg">
<path d="M14 0C6.286 0 0 6.286 0 14C0 21.714 6.286 28 14 28C21.714 28 28 21.714 28 14C28 6.286 21.714 0 14 0ZM17.906 14.742L12.964 19.684C12.754 19.894 12.488 19.992 12.222 19.992C11.956 19.992 11.69 19.894 11.48 19.684C11.2847 19.4864 11.1752 19.2198 11.1752 18.942C11.1752 18.6642 11.2847 18.3976 11.48 18.2L15.68 14L11.48 9.8C11.2847 9.60241 11.1752 9.3358 11.1752 9.058C11.1752 8.7802 11.2847 8.51359 11.48 8.316C11.886 7.91 12.558 7.91 12.964 8.316L17.906 13.258C18.326 13.664 18.326 14.336 17.906 14.742Z" fill="#C8B8DB"/>
</svg>
