<svg width="29" height="28" viewBox="0 0 29 28" fill="none" xmlns="http://www.w3.org/2000/svg">
<path d="M14.5 0C6.786 0 0.5 6.286 0.5 14C0.5 21.714 6.786 28 14.5 28C22.214 28 28.5 21.714 28.5 14C28.5 6.286 22.214 0 14.5 0ZM18.406 14.742L13.464 19.684C13.254 19.894 12.988 19.992 12.722 19.992C12.456 19.992 12.19 19.894 11.98 19.684C11.7847 19.4864 11.6752 19.2198 11.6752 18.942C11.6752 18.6642 11.7847 18.3976 11.98 18.2L16.18 14L11.98 9.8C11.7847 9.60241 11.6752 9.3358 11.6752 9.058C11.6752 8.7802 11.7847 8.51359 11.98 8.316C12.386 7.91 13.058 7.91 13.464 8.316L18.406 13.258C18.826 13.664 18.826 14.336 18.406 14.742Z" fill="#F9F4F5"/>
</svg>
