<svg width="35" height="35" viewBox="0 0 35 35" fill="none" xmlns="http://www.w3.org/2000/svg">
<path d="M17.5 0C7.8575 0 0 7.8575 0 17.5C0 27.1425 7.8575 35 17.5 35C27.1425 35 35 27.1425 35 17.5C35 7.8575 27.1425 0 17.5 0ZM22.3825 18.4275L16.205 24.605C15.9425 24.8675 15.61 24.99 15.2775 24.99C14.945 24.99 14.6125 24.8675 14.35 24.605C14.1059 24.358 13.969 24.0248 13.969 23.6775C13.969 23.3302 14.1059 22.997 14.35 22.75L19.6 17.5L14.35 12.25C14.1059 12.003 13.969 11.6698 13.969 11.3225C13.969 10.9752 14.1059 10.642 14.35 10.395C14.8575 9.8875 15.6975 9.8875 16.205 10.395L22.3825 16.5725C22.9075 17.08 22.9075 17.92 22.3825 18.4275Z" fill="#C8B8DB"/>
</svg>
